# xmcd
# Track frame offsets:
# 150
# 14069
# 32075
# 43868
# 57115
# 69671
# 84876
# 103084
# 117299
# 129814
# 143384
# 157853
#
# Disc length: 2300 seconds
# Revision: 0
# Processed by: cddbd v1.5.1PL0 Copyright (c) Steve Scherf et al.
# Submitted via: VisiTrax 2.9.10.228 - For more info visit www.synapsa.com
#
DISCID=9308fa0c
DTITLE=Shane Worley - Feelin' Haggard
DYEAR=2004
DGENRE=Country
TTITLE0=Big city
TTITLE1=Someday when things are good
TTITLE2=Lonliness is eating me alive
TTITLE3=Honky tonk night time man
TTITLE4=You take me for granted
TTITLE5=I threw away the rose
TTITLE6=I think I'll just stay here and drink
TTITLE7=Somewhere between
TTITLE8=My house of memories
TTITLE9=Let's chase each other around the room
TTITLE10=High on a hilltop
TTITLE11=If we're not back in love by monday
EXTD=
EXTT0=
EXTT1=
EXTT2=
EXTT3=
EXTT4=
EXTT5=
EXTT6=
EXTT7=
EXTT8=
EXTT9=
EXTT10=
EXTT11=
PLAYORDER=
